<svg width="20" height="19" viewBox="0 0 20 19" fill="none" xmlns="http://www.w3.org/2000/svg">
<path d="M4.76007 5.9646H1.09845V18.4646H4.76007V5.9646Z" fill="black"/>
<path fill-rule="evenodd" clip-rule="evenodd" d="M2.86615 0.472168C1.72978 0.472168 0.845947 1.35601 0.845947 2.49237C0.845947 3.62873 1.72978 4.51257 2.86615 4.51257C4.00251 4.51257 4.88635 3.62873 4.88635 2.49237C4.88635 1.35601 4.00251 0.472168 2.86615 0.472168Z" fill="black"/>
<path fill-rule="evenodd" clip-rule="evenodd" d="M16.1237 5.90135C12.7146 4.95438 10.947 7.22711 10.947 7.22711L10.505 5.58569H7.09595V18.4645H11.0101V12.0251V10.8256C11.0101 9.68923 11.9571 8.74226 13.0934 8.74226C14.2298 8.74226 15.1768 9.68923 15.1768 10.8256V12.0251V18.4645H19.0909V12.0251C19.0909 12.0251 19.5328 6.91145 16.1237 5.90135Z" fill="black"/>
</svg>
