<svg width="24" height="24" viewBox="0 0 24 24" fill="none" xmlns="http://www.w3.org/2000/svg">
<g clip-path="url(#clip0)">
<path d="M24.46 6.02758C22.8986 6.02758 21.458 5.57313 20.3011 4.80648C18.9743 3.92762 18.021 2.63845 17.6844 1.15256C17.601 0.785432 17.5561 0.406566 17.5519 0.0183105H13.0916V10.7261L13.0862 16.5912C13.0862 18.1593 11.924 19.4888 10.3129 19.9564C9.84537 20.0921 9.3404 20.1564 8.81459 20.1311C8.14344 20.0987 7.5145 19.9207 6.96786 19.6334C5.80456 19.0222 5.01585 17.9133 4.99448 16.6447C4.96081 14.6622 6.78511 13.0458 9.04009 13.0458C9.48521 13.0458 9.9127 13.1096 10.3129 13.2256V10.2989V9.24677C9.89079 9.19184 9.46116 9.1632 9.02673 9.1632C6.55854 9.1632 4.25012 10.0646 2.60003 11.6885C1.35284 12.9157 0.604742 14.4814 0.489321 16.1232C0.338098 18.2799 1.23635 20.3301 2.97835 21.8428C3.23431 22.0648 3.50309 22.2709 3.78416 22.4611C5.27769 23.4709 7.10358 24.0183 9.02673 24.0183C9.46116 24.0183 9.89079 23.9901 10.3129 23.9352C12.1094 23.7014 13.767 22.9789 15.0751 21.8428C16.6825 20.447 17.5706 18.594 17.5802 16.6217L17.5572 7.86323C18.324 8.38294 19.1624 8.81297 20.0623 9.14677C21.4617 9.66554 22.9456 9.92845 24.4728 9.92798V7.08249V6.02664C24.4739 6.02758 24.4611 6.02758 24.46 6.02758Z" fill="black"/>
</g>
<defs>
<clipPath id="clip0">
<rect width="24" height="24" fill="white"/>
</clipPath>
</defs>
</svg>
